<svg width="30" height="35" viewBox="0 0 30 35" fill="none" xmlns="http://www.w3.org/2000/svg">
<g clip-path="url(#clip0_1615_5651)">
<path d="M30 5.15186H0V28.6076H30V5.15186Z" fill="#16133F"/>
<path d="M30.0006 3.02441H22.0664V5.41788H30.0006V3.02441Z" fill="#16133F"/>
<path d="M7.94125 3.02441H0V5.41788H7.94125V3.02441Z" fill="#991C52"/>
<path d="M15.0726 3.02441H7.80469V5.41788H15.0726V3.02441Z" fill="#512668"/>
<path d="M22.135 3.02441H14.9355V5.41788H22.135V3.02441Z" fill="#2D2F75"/>
<path d="M30.0007 0H21.9297V3.06554H30.0007V0Z" fill="#00916B"/>
<path d="M7.94125 0.0234375H0V3.06622H7.94125V0.0234375Z" fill="#FAB01B"/>
<path d="M15.0726 0.0332031H7.80469V3.06536H15.0726V0.0332031Z" fill="#CF7729"/>
<path d="M22.135 0H14.9355V3.06554H22.135V0Z" fill="#ED3B25"/>
<path d="M30 29.1206H0V34.35H30V29.1206Z" fill="#000101"/>
<path d="M2.50391 21.418H4.62181C5.89904 21.418 6.73971 22.0951 6.73971 23.2076V23.2238C6.73971 24.441 5.72107 25.0701 4.51685 25.0701H3.14278V27.0616H2.50441V21.418H2.50391ZM4.54068 24.4896C5.4782 24.4896 6.09273 23.9899 6.09273 23.2481V23.2319C6.09273 22.4258 5.48631 22.0066 4.57313 22.0066H3.14227V24.4896H4.54068Z" fill="#FAB01B"/>
<path d="M9.52004 21.418H10.1665L12.2276 24.4977L14.2887 21.418H14.9352V27.0616H14.2969V22.4906L12.2357 25.5136H12.2033L10.1422 22.4986V27.0616H9.51953V21.418H9.52004Z" fill="#FAB01B"/>
<path d="M17.7407 24.2559V24.2397C17.7407 22.6917 18.8806 21.3213 20.5781 21.3213C21.5319 21.3213 22.1221 21.5954 22.6879 22.0712L22.2757 22.5552C21.8391 22.1764 21.3544 21.9104 20.5538 21.9104C19.3009 21.9104 18.4034 22.9663 18.4034 24.224V24.2402C18.4034 25.5863 19.2685 26.5861 20.6425 26.5861C21.289 26.5861 21.8873 26.3363 22.2752 26.0217V24.6189H20.5533V24.0465H22.8892V26.2958C22.3639 26.7636 21.5714 27.1586 20.6177 27.1586C18.8395 27.1586 17.7402 25.8685 17.7402 24.2564L17.7407 24.2559Z" fill="#FAB01B"/>
<path d="M2.49609 31.5593V31.5537C2.49609 31.0192 2.88956 30.5464 3.47569 30.5464C3.80476 30.5464 4.00859 30.641 4.2038 30.8053L4.06132 30.9722C3.91073 30.8412 3.74341 30.7497 3.46707 30.7497C3.03457 30.7497 2.72477 31.1143 2.72477 31.5487V31.5542C2.72477 32.019 3.02341 32.3644 3.498 32.3644C3.7211 32.3644 3.92797 32.2779 4.06183 32.1697V31.6852H3.46758V31.4875H4.27428V32.2642C4.09276 32.4256 3.81947 32.5621 3.48989 32.5621C2.87587 32.5621 2.4966 32.1166 2.4966 31.5603L2.49609 31.5593Z" fill="white"/>
<path d="M7.28176 30.5796H8.12192C8.36175 30.5796 8.55443 30.6519 8.67713 30.7743C8.77195 30.8689 8.82772 31.0054 8.82772 31.1581V31.1637C8.82772 31.4863 8.60462 31.676 8.29736 31.7316L8.89718 32.5276H8.62643L8.06006 31.7705H7.50181V32.5276H7.28125V30.5791L7.28176 30.5796ZM8.10215 31.5733C8.39522 31.5733 8.60462 31.4231 8.60462 31.1723V31.1667C8.60462 30.9275 8.42057 30.7829 8.10519 30.7829H7.50232V31.5733H8.10215V31.5733Z" fill="white"/>
<path d="M11.7246 31.5593V31.5537C11.7246 31.0167 12.1292 30.5464 12.7235 30.5464C13.3177 30.5464 13.7168 31.0111 13.7168 31.5482V31.5537C13.7168 32.0908 13.3122 32.5611 12.7179 32.5611C12.1236 32.5611 11.7246 32.0963 11.7246 31.5593V31.5593ZM13.4886 31.5593V31.5537C13.4886 31.1113 13.1651 30.7492 12.7184 30.7492C12.2717 30.7492 11.9538 31.1052 11.9538 31.5482V31.5537C11.9538 31.9962 12.2773 32.3583 12.724 32.3583C13.1707 32.3583 13.4886 32.0023 13.4886 31.5593Z" fill="white"/>
<path d="M16.6641 31.7124V30.5796H16.8846V31.6987C16.8846 32.1189 17.1077 32.3556 17.4819 32.3556C17.8561 32.3556 18.0706 32.1387 18.0706 31.7129V30.5801H18.2912V31.6962C18.2912 32.2641 17.9646 32.5589 17.4763 32.5589C16.9881 32.5589 16.6641 32.2641 16.6641 31.7129V31.7124Z" fill="white"/>
<path d="M21.3247 30.5796H22.0559C22.497 30.5796 22.787 30.8132 22.787 31.1976V31.2031C22.787 31.6234 22.4356 31.8403 22.0194 31.8403H21.5448V32.5276H21.3242V30.5791L21.3247 30.5796ZM22.028 31.6401C22.3515 31.6401 22.5639 31.4676 22.5639 31.2112V31.2057C22.5639 30.9275 22.3545 30.7824 22.0391 30.7824H21.5453V31.6395H22.028V31.6401Z" fill="white"/>
</g>
<defs>
<clipPath id="clip0_1615_5651">
<rect width="30" height="34.35" fill="white"/>
</clipPath>
</defs>
</svg>
